<svg version="1.1" xmlns="http://www.w3.org/2000/svg" xmlns:xlink="http://www.w3.org/1999/xlink" x="0px" y="0px"
	 viewBox="0 0 624 116" enable-background="new 0 0 624 116" xml:space="preserve">
<g id="Logo">
	<g>
		<g>
			<path fill="#FF6E41" d="M107.218,11.536c9.692,0,17.886,3.297,24.481,9.792s9.892,14.489,9.892,23.981
				c0,9.393-3.297,17.386-9.792,23.981c-6.495,6.595-14.489,9.792-23.981,9.792s-17.586-3.297-24.181-9.792
				c-6.595-6.495-9.792-14.389-9.792-23.682c0-6.195,1.499-11.891,4.497-17.187c2.998-5.296,7.094-9.393,12.191-12.39
				C95.627,13.035,101.223,11.536,107.218,11.536 M107.518,17.831c-4.796,0-9.293,1.199-13.49,3.697
				c-4.297,2.498-7.594,5.795-9.992,9.992c-2.398,4.197-3.597,8.893-3.597,14.089c0,7.594,2.598,14.089,7.994,19.385
				c5.296,5.296,11.691,7.894,19.185,7.894c4.996,0,9.593-1.199,13.889-3.597c4.197-2.398,7.594-5.696,9.892-9.892
				c2.398-4.197,3.597-8.893,3.597-13.989s-1.199-9.692-3.597-13.889c-2.398-4.097-5.696-7.394-10.092-9.892
				C116.911,19.03,112.314,17.831,107.518,17.831"/>
			<polygon fill="#FF6E41" points="158.878,79.583 158.878,11.336 160.377,11.336 205.841,63.695 205.841,11.336 212.636,11.336 
				212.636,79.583 211.037,79.583 165.972,27.923 165.972,79.583 			"/>
			<rect x="231.122" y="11.336" fill="#FF6E41" width="6.395" height="68.147"/>
			<path fill="#FF6E41" d="M462.042,11.336h-13.09l-18.386,49.262l37.071,0.2l7.094,18.486h13.39L462.042,11.336z M446.554,52.604
				l9.093-23.282l8.993,23.282H446.554z"/>
			<polygon fill="#FF6E41" points="502.111,11.336 515.001,11.336 515.001,66.793 540.681,66.793 540.681,79.083 502.111,79.083 			
				"/>
			<polygon fill="#FF6E41" points="554.47,11.336 567.36,11.336 567.36,66.793 593.04,66.793 593.04,79.083 554.47,79.083 			"/>
			<path fill="#FF6E41" d="M450.651,107.861c0,0-31.575-11.391-38.57-30.276c-7.794-21.184,21.084-25.98,50.661-25.18
				c15.888,0.5,35.372,2.898,35.372,2.898s-45.964,5.895-62.551,19.285C419.375,87.577,450.651,107.861,450.651,107.861"/>
			<path fill="#FF6E41" d="M313.558,63.096c-5.995,6.795-13.49,10.192-22.283,10.192c-8.194,0-15.088-2.598-20.484-7.894
				c-5.396-5.296-8.094-11.891-8.094-19.685c0-5.196,1.199-9.892,3.597-14.089s5.795-7.494,10.192-9.992
				c4.397-2.498,9.193-3.697,14.289-3.697c4.696,0,8.993,0.899,12.99,2.798c3.797,1.799,6.995,4.397,9.792,7.894v-8.793
				c-1.998-1.599-4.097-3.597-6.495-4.696c-4.896-2.398-10.292-3.597-16.387-3.597c-9.992,0-18.286,3.198-24.981,9.692
				c-6.595,6.495-9.992,14.389-9.992,23.881c0,8.993,2.698,16.687,8.194,22.982c6.495,7.494,15.488,11.291,26.779,11.291
				c5.895,0,11.291-1.099,16.187-3.397c2.398-1.099,4.596-2.998,6.595-4.596v-8.294H313.558z"/>
			<path fill="#FF6E41" d="M38.971,42.212c-15.388-3.198-18.286-7.194-18.286-13.49v-0.2c0-6.695,6.395-11.491,15.088-11.491
				c7.294,0,13.19,2.198,18.885,7.094l0.5,0.5l0.1-0.2v-7.494c-5.895-3.897-11.791-5.596-19.385-5.596
				c-12.29,0-21.483,7.594-21.483,17.686v0.2c0,10.192,6.495,15.688,22.383,18.885c14.888,2.998,17.786,6.895,17.786,13.09v0.2
				c0,7.194-6.495,12.191-15.688,12.191c-8.993,0-15.388-2.598-22.682-9.393l-0.5-0.5l-0.1,0.1v7.794
				c7.094,5.296,14.289,7.694,23.082,7.694c12.99,0,22.083-7.494,22.083-18.286v-0.2C60.754,50.905,54.259,45.31,38.971,42.212"/>
			<polygon fill="#FF6E41" points="411.082,11.336 395.594,57.5 395.294,58.499 394.994,57.5 379.706,11.136 367.316,11.136 
				352.028,57.5 351.728,58.499 351.328,57.5 335.84,11.336 320.452,11.336 344.933,79.483 357.623,79.483 372.911,35.018 
				373.311,34.118 373.611,35.018 388.999,79.483 401.589,79.483 426.07,11.336 			"/>
		</g>
		<path fill="#FF6E41" d="M606.456,26.529c-4.265,0-7.735-3.47-7.735-7.735s3.47-7.735,7.735-7.735c4.265,0,7.735,3.47,7.735,7.735
			S610.721,26.529,606.456,26.529z M606.456,12.125c-3.677,0-6.669,2.992-6.669,6.669s2.992,6.669,6.669,6.669
			c3.677,0,6.669-2.992,6.669-6.669S610.133,12.125,606.456,12.125z"/>
		<g>
			<g>
				<path fill="#FF6E41" d="M603.028,14.359c0.05-0.056,0.113-0.044,0.171-0.044c1.079,0,2.159-0.009,3.238,0.005
					c0.268,0.003,0.538,0.007,0.806,0.032c0.452,0.041,0.9,0.111,1.326,0.281c0.403,0.16,0.757,0.388,1.004,0.753
					c0.152,0.225,0.259,0.475,0.305,0.742c0.092,0.542,0.103,1.082-0.079,1.611c-0.157,0.454-0.453,0.794-0.857,1.046
					c-0.2,0.124-0.413,0.215-0.653,0.294c0.091,0.036,0.17,0.062,0.245,0.097c0.259,0.121,0.481,0.294,0.661,0.514
					c0.379,0.462,0.638,0.995,0.885,1.534c0.055,0.12,0.116,0.237,0.174,0.355c0.249,0.499,0.498,0.997,0.746,1.496
					c0.026,0.053,0.05,0.107,0.071,0.154c-0.007,0.016-0.009,0.021-0.012,0.026c-0.004,0.004-0.009,0.01-0.014,0.01
					c-0.761,0.022-1.522,0.004-2.283,0.009c-0.042,0-0.084,0.005-0.128-0.019c-0.051-0.039-0.068-0.105-0.097-0.163
					c-0.37-0.74-0.736-1.481-1.108-2.219c-0.113-0.225-0.249-0.436-0.43-0.615c-0.19-0.188-0.421-0.283-0.682-0.331
					c-0.31-0.056-0.62-0.019-0.926-0.032c-0.055,0.065-0.033,0.134-0.034,0.197c-0.001,0.977-0.001,1.955-0.002,2.932
					c0,0.071,0.012,0.144-0.011,0.198c-0.039,0.052-0.082,0.052-0.124,0.052c-0.707,0-1.415-0.001-2.122-0.001
					c-0.017,0-0.035-0.006-0.049-0.009c-0.007-0.006-0.011-0.01-0.015-0.015c-0.004-0.004-0.009-0.009-0.01-0.014
					c-0.004-0.03-0.009-0.059-0.009-0.089c0-2.914,0.001-5.828,0.002-8.742C603.015,14.389,603.024,14.372,603.028,14.359z
					 M605.362,18.262c0.056,0.004,0.096,0.01,0.137,0.01c0.318,0,0.636-0.004,0.953,0.001c0.139,0.002,0.276-0.013,0.408-0.047
					c0.353-0.089,0.617-0.283,0.713-0.656c0.073-0.284,0.072-0.572-0.002-0.851c-0.067-0.251-0.214-0.452-0.467-0.558
					c-0.167-0.07-0.34-0.114-0.521-0.116c-0.366-0.004-0.731-0.003-1.097-0.003c-0.04,0-0.085-0.01-0.124,0.035
					C605.362,16.793,605.362,17.517,605.362,18.262z"/>
			</g>
		</g>
	</g>
</g>
<g id="Grid" display="none">
	<g display="inline">
		<g>
			<g>
				<path fill="none" stroke="#EC663A" stroke-width="0.5" stroke-linecap="round" stroke-linejoin="round" d="M654.081,163.442
					c0,0-0.162-0.058-0.464-0.173"/>
				
					<path fill="none" stroke="#EC663A" stroke-width="0.5" stroke-linecap="round" stroke-linejoin="round" stroke-dasharray="1.0053,1.0053" d="
					M652.683,162.905c-6.189-2.461-31.086-13.249-37.202-29.763c-7.8-21.2,21.1-26,50.7-25.2
					c13.771,0.433,30.242,2.291,34.406,2.781"/>
				<path fill="none" stroke="#EC663A" stroke-width="0.5" stroke-linecap="round" stroke-linejoin="round" d="M701.088,110.782
					c0.322,0.038,0.493,0.059,0.493,0.059s-0.17,0.022-0.492,0.066"/>
				
					<path fill="none" stroke="#EC663A" stroke-width="0.5" stroke-linecap="round" stroke-linejoin="round" stroke-dasharray="1.0079,1.0079" d="
					M700.094,111.046c-8.017,1.143-46.289,7.129-61.114,19.096c-14.61,11.724,9.412,29.384,14.269,32.739"/>
				<path fill="none" stroke="#EC663A" stroke-width="0.5" stroke-linecap="round" stroke-linejoin="round" d="M653.668,163.167
					c0.267,0.181,0.413,0.275,0.413,0.275"/>
			</g>
		</g>
		<g>
			<g>
				<path fill="none" stroke="#EC663A" stroke-width="0.5" stroke-linecap="round" stroke-linejoin="round" d="M-33.11,11.06
					c0,0-0.162-0.058-0.464-0.173"/>
				
					<path fill="none" stroke="#EC663A" stroke-width="0.5" stroke-linecap="round" stroke-linejoin="round" stroke-dasharray="1.0053,1.0053" d="
					M-34.508,10.522C-40.697,8.062-65.593-2.727-71.71-19.24c-7.8-21.2,21.1-26,50.7-25.2c13.771,0.433,30.242,2.291,34.406,2.781"
					/>
				<path fill="none" stroke="#EC663A" stroke-width="0.5" stroke-linecap="round" stroke-linejoin="round" d="M13.898-41.6
					c0.322,0.038,0.493,0.059,0.493,0.059s-0.17,0.022-0.492,0.066"/>
				
					<path fill="none" stroke="#EC663A" stroke-width="0.5" stroke-linecap="round" stroke-linejoin="round" stroke-dasharray="1.0079,1.0079" d="
					M12.904-41.336C4.887-40.192-33.385-34.207-48.21-22.24c-14.61,11.724,9.412,29.384,14.27,32.739"/>
				<path fill="none" stroke="#EC663A" stroke-width="0.5" stroke-linecap="round" stroke-linejoin="round" d="M-33.523,10.784
					c0.267,0.181,0.413,0.275,0.413,0.275"/>
			</g>
		</g>
		<g>
			<g>
				<path fill="none" stroke="#EC663A" stroke-width="0.5" stroke-linecap="round" stroke-linejoin="round" d="M654.081,11.06
					c0,0-0.162-0.058-0.464-0.173"/>
				
					<path fill="none" stroke="#EC663A" stroke-width="0.5" stroke-linecap="round" stroke-linejoin="round" stroke-dasharray="1.0053,1.0053" d="
					M652.683,10.522c-6.189-2.461-31.086-13.249-37.202-29.763c-7.8-21.2,21.1-26,50.7-25.2c13.771,0.433,30.242,2.291,34.406,2.781
					"/>
				<path fill="none" stroke="#EC663A" stroke-width="0.5" stroke-linecap="round" stroke-linejoin="round" d="M701.088-41.6
					c0.322,0.038,0.493,0.059,0.493,0.059s-0.17,0.022-0.492,0.066"/>
				
					<path fill="none" stroke="#EC663A" stroke-width="0.5" stroke-linecap="round" stroke-linejoin="round" stroke-dasharray="1.0079,1.0079" d="
					M700.094-41.336c-8.017,1.143-46.289,7.129-61.114,19.096c-14.61,11.724,9.412,29.384,14.269,32.739"/>
				<path fill="none" stroke="#EC663A" stroke-width="0.5" stroke-linecap="round" stroke-linejoin="round" d="M653.668,10.784
					c0.267,0.181,0.413,0.275,0.413,0.275"/>
			</g>
		</g>
		<g>
			<g>
				<path fill="none" stroke="#EC663A" stroke-width="0.5" stroke-linecap="round" stroke-linejoin="round" d="M-33.11,163.642
					c0,0-0.162-0.058-0.464-0.173"/>
				
					<path fill="none" stroke="#EC663A" stroke-width="0.5" stroke-linecap="round" stroke-linejoin="round" stroke-dasharray="1.0053,1.0053" d="
					M-34.508,163.104c-6.189-2.461-31.086-13.249-37.202-29.763c-7.8-21.2,21.1-26,50.7-25.2
					c13.771,0.433,30.242,2.291,34.406,2.781"/>
				<path fill="none" stroke="#EC663A" stroke-width="0.5" stroke-linecap="round" stroke-linejoin="round" d="M13.898,110.982
					c0.322,0.038,0.493,0.059,0.493,0.059s-0.17,0.022-0.492,0.066"/>
				
					<path fill="none" stroke="#EC663A" stroke-width="0.5" stroke-linecap="round" stroke-linejoin="round" stroke-dasharray="1.0079,1.0079" d="
					M12.904,111.246c-8.017,1.143-46.289,7.129-61.114,19.096c-14.61,11.724,9.412,29.384,14.27,32.739"/>
				<path fill="none" stroke="#EC663A" stroke-width="0.5" stroke-linecap="round" stroke-linejoin="round" d="M-33.523,163.367
					c0.267,0.181,0.413,0.275,0.413,0.275"/>
			</g>
		</g>
		<g>
			<g>
				
					<line fill="none" stroke="#EC663A" stroke-width="0.5" stroke-linecap="round" stroke-linejoin="round" x1="-73" y1="11.06" x2="-72.5" y2="11.06"/>
				
					<line fill="none" stroke="#EC663A" stroke-width="0.5" stroke-linecap="round" stroke-linejoin="round" stroke-dasharray="1.0008,1.0008" x1="-71.499" y1="11.06" x2="700.58" y2="11.06"/>
				
					<line fill="none" stroke="#EC663A" stroke-width="0.5" stroke-linecap="round" stroke-linejoin="round" x1="701.081" y1="11.06" x2="701.581" y2="11.06"/>
			</g>
		</g>
		<g>
			<g>
				
					<line fill="none" stroke="#EC663A" stroke-width="0.5" stroke-linecap="round" stroke-linejoin="round" x1="-73" y1="-44.922" x2="-72.5" y2="-44.922"/>
				
					<line fill="none" stroke="#EC663A" stroke-width="0.5" stroke-linecap="round" stroke-linejoin="round" stroke-dasharray="1.0008,1.0008" x1="-71.499" y1="-44.922" x2="700.58" y2="-44.922"/>
				
					<line fill="none" stroke="#EC663A" stroke-width="0.5" stroke-linecap="round" stroke-linejoin="round" x1="701.081" y1="-44.922" x2="701.581" y2="-44.922"/>
			</g>
		</g>
		<g>
			<g>
				
					<line fill="none" stroke="#EC663A" stroke-width="0.5" stroke-linecap="round" stroke-linejoin="round" x1="-73" y1="79.56" x2="-72.5" y2="79.56"/>
				
					<line fill="none" stroke="#EC663A" stroke-width="0.5" stroke-linecap="round" stroke-linejoin="round" stroke-dasharray="1.0008,1.0008" x1="-71.499" y1="79.56" x2="700.58" y2="79.56"/>
				
					<line fill="none" stroke="#EC663A" stroke-width="0.5" stroke-linecap="round" stroke-linejoin="round" x1="701.081" y1="79.56" x2="701.581" y2="79.56"/>
			</g>
		</g>
		<g>
			<g>
				
					<line fill="none" stroke="#EC663A" stroke-width="0.5" stroke-linecap="round" stroke-linejoin="round" x1="-73" y1="107.86" x2="-72.5" y2="107.86"/>
				
					<line fill="none" stroke="#EC663A" stroke-width="0.5" stroke-linecap="round" stroke-linejoin="round" stroke-dasharray="1.0008,1.0008" x1="-71.499" y1="107.86" x2="700.58" y2="107.86"/>
				
					<line fill="none" stroke="#EC663A" stroke-width="0.5" stroke-linecap="round" stroke-linejoin="round" x1="701.081" y1="107.86" x2="701.581" y2="107.86"/>
			</g>
		</g>
		<g>
			<g>
				
					<line fill="none" stroke="#EC663A" stroke-width="0.5" stroke-linecap="round" stroke-linejoin="round" x1="-73" y1="163.842" x2="-72.5" y2="163.842"/>
				
					<line fill="none" stroke="#EC663A" stroke-width="0.5" stroke-linecap="round" stroke-linejoin="round" stroke-dasharray="1.0008,1.0008" x1="-71.499" y1="163.842" x2="700.58" y2="163.842"/>
				
					<line fill="none" stroke="#EC663A" stroke-width="0.5" stroke-linecap="round" stroke-linejoin="round" x1="701.081" y1="163.842" x2="701.581" y2="163.842"/>
			</g>
		</g>
		<g>
			<g>
				
					<line fill="none" stroke="#EC663A" stroke-width="0.5" stroke-linecap="round" stroke-linejoin="round" x1="14.39" y1="-44.522" x2="14.39" y2="-44.022"/>
				
					<line fill="none" stroke="#EC663A" stroke-width="0.5" stroke-linecap="round" stroke-linejoin="round" stroke-dasharray="0.9998,0.9998" x1="14.39" y1="-43.023" x2="14.39" y2="162.442"/>
				
					<line fill="none" stroke="#EC663A" stroke-width="0.5" stroke-linecap="round" stroke-linejoin="round" x1="14.39" y1="162.942" x2="14.39" y2="163.442"/>
			</g>
		</g>
		<g>
			<g>
				
					<line fill="none" stroke="#EC663A" stroke-width="0.5" stroke-linecap="round" stroke-linejoin="round" x1="-73" y1="-44.522" x2="-73" y2="-44.022"/>
				
					<line fill="none" stroke="#EC663A" stroke-width="0.5" stroke-linecap="round" stroke-linejoin="round" stroke-dasharray="0.9998,0.9998" x1="-73" y1="-43.023" x2="-73" y2="162.442"/>
				
					<line fill="none" stroke="#EC663A" stroke-width="0.5" stroke-linecap="round" stroke-linejoin="round" x1="-73" y1="162.942" x2="-73" y2="163.442"/>
			</g>
		</g>
		<g>
			<g>
				
					<line fill="none" stroke="#EC663A" stroke-width="0.5" stroke-linecap="round" stroke-linejoin="round" x1="701.581" y1="-44.522" x2="701.581" y2="-44.022"/>
				
					<line fill="none" stroke="#EC663A" stroke-width="0.5" stroke-linecap="round" stroke-linejoin="round" stroke-dasharray="0.9998,0.9998" x1="701.581" y1="-43.023" x2="701.581" y2="162.442"/>
				
					<line fill="none" stroke="#EC663A" stroke-width="0.5" stroke-linecap="round" stroke-linejoin="round" x1="701.581" y1="162.942" x2="701.581" y2="163.442"/>
			</g>
		</g>
		<g>
			<g>
				
					<line fill="none" stroke="#EC663A" stroke-width="0.5" stroke-linecap="round" stroke-linejoin="round" x1="614.19" y1="-44.522" x2="614.19" y2="-44.022"/>
				
					<line fill="none" stroke="#EC663A" stroke-width="0.5" stroke-linecap="round" stroke-linejoin="round" stroke-dasharray="0.9998,0.9998" x1="614.19" y1="-43.023" x2="614.19" y2="162.442"/>
				
					<line fill="none" stroke="#EC663A" stroke-width="0.5" stroke-linecap="round" stroke-linejoin="round" x1="614.19" y1="162.942" x2="614.19" y2="163.442"/>
			</g>
		</g>
	</g>
</g>
</svg>